# xmcd
#
# Track frame offsets:
#	150
#	20642
#	34463
#	50208
#	66527
#	82328
#	100676
#	118154
#	143941
#	157656
#	175595
#	197486
#	212112
#	232222
#	255713
#	282108
#	305758
#	324859
#	336409
#
# Disc length: 4714
#
# Revision: 2
# Processed by: cddbd v1.5.1PL0 Copyright (c) Steve Scherf et al.
# Submitted via: EasyCDDAExtractor 6.0.0.1
# Normalized: r1:DSETVAR1
#
DISCID=25126813
DTITLE=Various Artist - The 80`s Collection
DYEAR=2002
DGENRE=Pop
TTITLE0=Rolling Stones - Anybody Seen My Baby
TTITLE1=Modern Talking - Cheri Cheri Lady
TTITLE2=C.C. Catch - Cause You Are Young
TTITLE3=Rick Astley - Never Gonna Give You Up
TTITLE4=Smokie - Living Next Door To Alice
TTITLE5=Madonna - La Isla Bonita
TTITLE6=Abba - Dancing Queen
TTITLE7=Jennifer Rush - Power Of Love
TTITLE8=Queen - We Are The Champions
TTITLE9=Suzi Quatro and Chris Norman - Stumblin' In
TTITLE10=Gazebo - I Like Chopin
TTITLE11=Kylie Minogue - Locomotion
TTITLE12=Drupi - Piccolo E Fragile
TTITLE13=Vanessa Paradis - Joe Le Taxi
TTITLE14=Boney M - Rasputin
TTITLE15=Scorpions - Wind Of Change
TTITLE16=Martika - I Feel The Earth Move
TTITLE17=Shakin` Stevens - Oh Julie
TTITLE18=Barbara Streisand - Woman In Love
EXTD=
EXTT0=
EXTT1=
EXTT2=
EXTT3=
EXTT4=
EXTT5=
EXTT6=
EXTT7=
EXTT8=
EXTT9=
EXTT10=
EXTT11=
EXTT12=
EXTT13=
EXTT14=
EXTT15=
EXTT16=
EXTT17=
EXTT18=
PLAYORDER=
